HIERARCHY
ROOT hip
{
  OFFSET 0 0 0
  CHANNELS 6 Xposition Yposition Zposition Zrotation Yrotation Xrotation
  JOINT abdomen
  {
    OFFSET 0 20.6881 -0.73152
    CHANNELS 3 Zrotation Xrotation Yrotation
    JOINT chest
    {
      OFFSET 0 11.7043 -0.48768
      CHANNELS 3 Zrotation Xrotation Yrotation
      JOINT neck
      {
        OFFSET 0 22.1894 -2.19456
        CHANNELS 3 Zrotation Xrotation Yrotation
        JOINT head
        {
          OFFSET -0.24384 7.07133 1.2192
          CHANNELS 3 Zrotation Xrotation Yrotation
          JOINT leftEye
          {
            OFFSET 4.14528 8.04674 8.04672
            CHANNELS 3 Zrotation Xrotation Yrotation
            End Site
            {
              OFFSET 1 0 0
            }
          }
          JOINT rightEye
          {
            OFFSET -3.6576 8.04674 8.04672
            CHANNELS 3 Zrotation Xrotation Yrotation
            End Site
            {
              OFFSET 1 0 0
            }
          }
        }
      }
      JOINT rCollar
      {
        OFFSET -2.68224 19.2634 -4.8768
        CHANNELS 3 Zrotation Xrotation Yrotation
        JOINT rShldr
        {
          OFFSET -8.77824 -1.95073 1.46304
          CHANNELS 3 Zrotation Xrotation Yrotation
          JOINT rForeArm
          {
            OFFSET -28.1742 -1.7115 0.48768
            CHANNELS 3 Zrotation Xrotation Yrotation
            JOINT rHand
            {
              OFFSET -22.5879 0.773209 7.07136
              CHANNELS 3 Zrotation Xrotation Yrotation
              JOINT rThumb1
              {
                OFFSET -1.2192 -0.487915 3.41376
                CHANNELS 3 Zrotation Xrotation Yrotation
                JOINT rThumb2
                {
                  OFFSET -3.37035 -0.52449 3.41376
                  CHANNELS 3 Zrotation Xrotation Yrotation
                  End Site
                  {
                    OFFSET -1.78271 -1.18214 1.43049
                  }
                }
              }
              JOINT rIndex1
              {
                OFFSET -7.75947 0.938293 5.60832
                CHANNELS 3 Zrotation Xrotation Yrotation
                JOINT rIndex2
                {
                  OFFSET -2.54057 -0.884171 1.56538
                  CHANNELS 3 Zrotation Xrotation Yrotation
                  End Site
                  {
                    OFFSET -1.62519 -0.234802 1.16502
                  }
                }
              }
              JOINT rMid1
              {
                OFFSET -8.24714 1.18213 3.41376
                CHANNELS 3 Zrotation Xrotation Yrotation
                JOINT rMid2
                {
                  OFFSET -3.10165 -0.590103 1.0647
                  CHANNELS 3 Zrotation Xrotation Yrotation
                  End Site
                  {
                    OFFSET -2.48547 -0.328903 0.83742
                  }
                }
              }
              JOINT rRing1
              {
                OFFSET -8.82822 0.546677 1.51678
                CHANNELS 3 Zrotation Xrotation Yrotation
                JOINT rRing2
                {
                  OFFSET -2.60934 -0.819778 -0.0198488
                  CHANNELS 3 Zrotation Xrotation Yrotation
                  End Site
                  {
                    OFFSET -2.33842 -0.294052 0.168128
                  }
                }
              }
              JOINT rPinky1
              {
                OFFSET -8.27202 -0.0477905 -0.4584
                CHANNELS 3 Zrotation Xrotation Yrotation
                JOINT rPinky2
                {
                  OFFSET -1.82734 -0.647385 -0.700984
                  CHANNELS 3 Zrotation Xrotation Yrotation
                  End Site
                  {
                    OFFSET -1.69225 -0.51767 -0.607171
                  }
                }
              }
            }
          }
        }
      }
      JOINT lCollar
      {
        OFFSET 2.68224 19.2634 -4.8768
        CHANNELS 3 Zrotation Xrotation Yrotation
        JOINT lShldr
        {
          OFFSET 8.77824 -1.95073 1.46304
          CHANNELS 3 Zrotation Xrotation Yrotation
          JOINT lForeArm
          {
            OFFSET 28.1742 -1.7115 0.48768
            CHANNELS 3 Zrotation Xrotation Yrotation
            JOINT lHand
            {
              OFFSET 22.5879 0.773209 7.07136
              CHANNELS 3 Zrotation Xrotation Yrotation
              JOINT lThumb1
              {
                OFFSET 1.2192 -0.487915 3.41376
                CHANNELS 3 Zrotation Xrotation Yrotation
                JOINT lThumb2
                {
                  OFFSET 3.37035 -0.52449 3.41376
                  CHANNELS 3 Zrotation Xrotation Yrotation
                  End Site
                  {
                    OFFSET 1.78271 -1.18214 1.43049
                  }
                }
              }
              JOINT lIndex1
              {
                OFFSET 7.75947 0.938293 5.60832
                CHANNELS 3 Zrotation Xrotation Yrotation
                JOINT lIndex2
                {
                  OFFSET 2.54057 -0.884171 1.56538
                  CHANNELS 3 Zrotation Xrotation Yrotation
                  End Site
                  {
                    OFFSET 1.62519 -0.234802 1.16502
                  }
                }
              }
              JOINT lMid1
              {
                OFFSET 8.24714 1.18213 3.41376
                CHANNELS 3 Zrotation Xrotation Yrotation
                JOINT lMid2
                {
                  OFFSET 3.10165 -0.590103 1.0647
                  CHANNELS 3 Zrotation Xrotation Yrotation
                  End Site
                  {
                    OFFSET 2.48547 -0.328903 0.83742
                  }
                }
              }
              JOINT lRing1
              {
                OFFSET 8.82822 0.546677 1.51678
                CHANNELS 3 Zrotation Xrotation Yrotation
                JOINT lRing2
                {
                  OFFSET 2.60934 -0.819778 -0.0198488
                  CHANNELS 3 Zrotation Xrotation Yrotation
                  End Site
                  {
                    OFFSET 2.33842 -0.294052 0.168128
                  }
                }
              }
              JOINT lPinky1
              {
                OFFSET 8.27202 -0.0477905 -0.4584
                CHANNELS 3 Zrotation Xrotation Yrotation
                JOINT lPinky2
                {
                  OFFSET 1.82734 -0.647385 -0.700984
                  CHANNELS 3 Zrotation Xrotation Yrotation
                  End Site
                  {
                    OFFSET 1.69225 -0.51767 -0.607171
                  }
                }
              }
            }
          }
        }
      }
    }
  }
  JOINT rButtock
  {
    OFFSET -8.77824 4.35084 1.2192
    CHANNELS 3 Zrotation Xrotation Yrotation
    JOINT rThigh
    {
      OFFSET 0 -1.70687 -2.19456
      CHANNELS 3 Zrotation Xrotation Yrotation
      JOINT rShin
      {
        OFFSET 0 -36.8199 0.73152
        CHANNELS 3 Zrotation Xrotation Yrotation
        JOINT rFoot
        {
          OFFSET 0.73152 -45.1104 -5.12064
          CHANNELS 3 Zrotation Xrotation Yrotation
          End Site
          {
            OFFSET -1.1221 -3.69964 12.103
          }
        }
      }
    }
  }
  JOINT lButtock
  {
    OFFSET 8.77824 4.35084 1.2192
    CHANNELS 3 Zrotation Xrotation Yrotation
    JOINT lThigh
    {
      OFFSET 0 -1.70687 -2.19456
      CHANNELS 3 Zrotation Xrotation Yrotation
      JOINT lShin
      {
        OFFSET 0 -36.8199 0.73152
        CHANNELS 3 Zrotation Xrotation Yrotation
        JOINT lFoot
        {
          OFFSET -0.73152 -45.1104 -5.12064
          CHANNELS 3 Zrotation Xrotation Yrotation
          End Site
          {
            OFFSET 1.1221 -3.69964 12.103
          }
        }
      }
    }
  }
}
MOTION
Frames:	4
Frame Time:	0.03333
-1.3885289430618286 10.732091963291168 0.759626179933548 -1.295157790184021 -0.9692189693450928 2.0170657634735107 -0.9169959425926208 3.4814248085021973 0.6303859353065491 2.0968291759490967 -3.748624801635742 0.28777843713760376 -0.8543915152549744 4.158533573150635 -0.45923900604248047 1.4114444255828857 -5.673306465148926 -0.7383009791374207 0.45736396312713623 0.213692769408226 -0.0031214922200888395 -0.5964641571044922 -0.17442801594734192 -0.2559988796710968 -0.4093067944049835 0.7869920134544373 -0.8081560134887695 5.614146709442139 2.880302667617798 4.636870861053467 -5.5310516357421875 -3.452723503112793 5.287625312805176 0.2997688353061676 -3.1000711917877197 0.09934664517641068 -0.5290594696998596 0.47572606801986694 0.22257497906684875 0.21153856813907623 -0.20974381268024445 -0.7209479212760925 0.4128127694129944 0.18063664436340332 0.14809799194335938 0.8954511880874634 0.6445798277854919 -0.0018062008311972022 0.7205625176429749 0.3414943814277649 -0.5497217178344727 2.4059832096099854 0.9848988056182861 -0.47708532214164734 0.7674018144607544 0.5367939472198486 0.06306102871894836 2.6125428676605225 0.3375076949596405 0.5392789244651794 0.09601020067930222 -0.3780099153518677 -0.23384612798690796 1.2929818630218506 -0.5400881767272949 -0.030438220128417015 -0.4112601578235626 -0.2886918783187866 -0.5817949771881104 -6.530446529388428 3.926490306854248 -5.350778579711914 4.113800525665283 -2.7493772506713867 -5.4541168212890625 -0.6679726243019104 -2.285278797149658 -0.7489405870437622 -0.09479521960020065 0.601781964302063 -0.042237572371959686 -0.4953921437263489 0.016059957444667816 0.20854105055332184 -0.9566554427146912 -0.09930422902107239 0.12460877746343613 -2.4078266620635986 0.91037517786026 -0.09985703229904175 0.44474560022354126 0.4506322741508484 0.29040202498435974 -0.6014053821563721 1.4643088579177856 -0.12564462423324585 0.24644982814788818 0.4145037829875946 -0.20325185358524323 -3.9999170303344727 0.32753443717956543 0.040477246046066284 -0.3196062743663788 1.224273920059204 -0.5964242219924927 0.10367852449417114 -1.068550944328308 -0.17230167984962463 -0.45837894082069397 0.3204859793186188 -0.09913505613803864 -2.4562413692474365 -7.02904748916626 -0.7013559341430664 -0.023026086390018463 8.194392204284668 1.170185923576355 -0.13135939836502075 -2.6031908988952637 -1.4413554668426514 -0.7195093035697937 0.8249679803848267 0.06074559688568115 2.8268795013427734 -6.203469276428223 1.6392624378204346 0.7574484944343567 6.328552722930908 -0.8775169253349304 -0.23346996307373047 -3.1154065132141113 4.053554534912109
-2.23296657204628 25.632280111312866 1.0387769900262356 -2.2502098083496094 -1.6741254329681396 2.3211092948913574 -1.7101402282714844 6.560759544372559 1.3243299722671509 2.586362600326538 -5.722367763519287 0.5905472040176392 -2.529376745223999 8.057260513305664 -2.028938055038452 3.975870370864868 -10.449248313903809 -3.006345748901367 0.18075449764728546 -0.06822124868631363 -0.1016191616654396 -0.18967953324317932 -0.3667670488357544 0.09298951178789139 -0.14733430743217468 0.3428080677986145 -0.24782533943653107 15.27773380279541 9.749319076538086 9.188511848449707 -12.56395149230957 -7.026599407196045 16.96161651611328 0.22252988815307617 -5.017733573913574 -0.3275202512741089 -0.3577549159526825 0.20173850655555725 -0.18364691734313965 0.22868050634860992 0.0777118131518364 -0.11774486303329468 0.15309834480285645 0.21361660957336426 0.10795190185308456 3.332226514816284 2.422693967819214 0.6713809370994568 0.3390495181083679 -0.06839646399021149 -0.02113328129053116 2.8631017208099365 0.9412853121757507 -0.18461275100708008 0.4788220524787903 0.39829814434051514 -0.08597107976675034 5.162689208984375 0.7429847121238708 0.08929511904716492 0.368371844291687 -0.19064661860466003 -0.010108444839715958 1.8663990497589111 -0.7291517853736877 -0.5019285678863525 -0.5601957440376282 -0.0796755701303482 -0.2040150910615921 -18.057865142822266 9.942238807678223 -12.617969512939453 10.913702964782715 -6.1135945320129395 -16.564321517944336 -0.24919812381267548 -3.5678248405456543 0.1900724172592163 -0.14767643809318542 0.44083720445632935 -0.32343819737434387 -0.2797183096408844 -0.09348153322935104 0.008989439345896244 -0.3365730345249176 -0.23141402006149292 0.20749841630458832 -4.389786720275879 2.6328535079956055 -0.22848977148532867 0.09551756829023361 0.2622339427471161 0.19617164134979248 -1.636682391166687 1.1533077955245972 -0.16954241693019867 0.022221576422452927 0.13201385736465454 -0.01336549874395132 -6.463263988494873 0.6290727257728577 -0.25264331698417664 0.01861410215497017 0.9495921730995178 -0.29931509494781494 -1.0539356470108032 -0.5927549600601196 0.07919904589653015 0.08650476485490799 -0.12868475914001465 -0.13852433860301971 -7.048908710479736 -14.886428833007812 -4.059359550476074 -0.4348635673522949 20.708160400390625 1.499132513999939 -1.2951602935791016 -4.653506755828857 -4.246153831481934 -0.5126572251319885 0.5578396320343018 0.18410153687000275 7.436405658721924 -13.511015892028809 4.705032825469971 0.3552662134170532 18.626089096069336 -1.3147234916687012 1.3711971044540405 -5.461061954498291 6.932538032531738
-2.367698773741722 51.53928995132446 1.2603542767465115 -3.0314764976501465 -2.3062474727630615 3.0478627681732178 -2.6238725185394287 12.137954711914062 2.878419876098633 3.0190622806549072 -9.127544403076172 0.7098894715309143 -5.085082530975342 13.997297286987305 -3.895761251449585 7.6336565017700195 -18.932621002197266 -5.6392598152160645 0.1474113017320633 -0.4266064763069153 -0.30858463048934937 0.037667252123355865 -0.31669124960899353 0.2625851035118103 -0.07598087936639786 0.07241811603307724 0.45419955253601074 31.751314163208008 24.393962860107422 15.681160926818848 -23.486204147338867 -17.83768653869629 40.95040512084961 0.035960275679826736 -8.083158493041992 -0.846450924873352 -0.03576396405696869 -0.06297793239355087 -0.3814757168292999 0.41479992866516113 0.3028962314128876 0.22403235733509064 -0.3551686406135559 0.20455968379974365 -0.13764743506908417 7.686220645904541 4.994986057281494 0.7865031957626343 -0.09276751428842545 -0.40690886974334717 0.47692620754241943 2.9525716304779053 1.2118804454803467 0.2181800752878189 -0.05540786683559418 0.06449022889137268 -0.07229628413915634 9.124695777893066 1.2984634637832642 -0.38666242361068726 0.4730808138847351 0.27378523349761963 0.22068171203136444 2.365556001663208 -0.7494234442710876 -0.6298651099205017 -0.4442351460456848 0.21080619096755981 0.2890052795410156 -37.159366607666016 24.883560180664062 -23.518455505371094 21.937740325927734 -16.165935516357422 -39.27686309814453 0.2889764606952667 -8.126893997192383 1.6176478862762451 -0.5031514763832092 0.5959789156913757 -0.18731346726417542 0.20955538749694824 0.13860049843788147 -0.112436443567276 0.38074493408203125 -0.13932810723781586 -0.11007682234048843 -7.389925479888916 5.188468933105469 -0.17055624723434448 -0.34499773383140564 0.006764274090528488 0.023832503706216812 -2.849088668823242 0.6854760646820068 -0.006759457755833864 -0.038793012499809265 -0.09738780558109283 0.0670744851231575 -9.960501670837402 0.9165830612182617 -0.15486018359661102 0.48041290044784546 0.289135217666626 0.1745939403772354 -2.2753748893737793 -0.4044342637062073 0.20476512610912323 0.43723011016845703 -0.09091777354478836 -0.33234333992004395 -16.759021759033203 -28.894378662109375 -12.436582565307617 -1.3332834243774414 45.469234466552734 2.394014358520508 -2.9697482585906982 -8.317593574523926 -9.324237823486328 0.1711960732936859 0.12452944368124008 0.15658526122570038 18.50044059753418 -28.380586624145508 13.029988288879395 0.21164843440055847 44.26036834716797 -1.5684230327606201 3.846682071685791 -9.073058128356934 11.134237289428711
-2.315570041537285 71.39508724212646 1.5365761704742908 -3.4528188705444336 -0.5873228311538696 3.8809592723846436 -2.657231330871582 17.3260555267334 4.428965091705322 2.1883859634399414 -11.59483528137207 0.9756709337234497 -6.1177849769592285 17.226318359375 -4.164180278778076 9.98045825958252 -25.90723991394043 -5.866783618927002 0.21117864549160004 -0.18457475304603577 -0.3178466260433197 0.10978223383426666 0.007391636725515127 0.05012406036257744 0.06926029920578003 0.4529905617237091 0.4756394624710083 43.91386795043945 39.024261474609375 21.283138275146484 -29.03260612487793 -31.9615478515625 67.18890380859375 -0.08740569651126862 -9.989126205444336 -1.5825568437576294 0.3339841067790985 -0.12770898640155792 0.06256677955389023 0.3598397374153137 0.3077426850795746 0.6788936257362366 -0.10603640228509903 0.25990012288093567 -0.4901936948299408 9.998414039611816 6.688018321990967 0.17083457112312317 -0.3223358988761902 -0.11927048861980438 0.22674082219600677 2.738471031188965 1.3653947114944458 0.48531416058540344 -0.14649567008018494 -0.2250930815935135 0.0684225931763649 11.716134071350098 1.3289636373519897 -0.3102377653121948 0.2761405110359192 0.3729710876941681 0.10869752615690231 2.4638710021972656 -0.581129789352417 -0.2865840494632721 0.12313005328178406 0.35935890674591064 0.43089431524276733 -53.35086441040039 41.17625427246094 -29.207447052001953 28.490121841430664 -30.23957061767578 -64.46084594726562 0.36488354206085205 -16.81174087524414 2.873964309692383 -0.4641217887401581 0.4997788369655609 0.1874559372663498 0.6461724638938904 0.2619352638721466 0.21567296981811523 0.4325751066207886 0.14708642661571503 -0.20999833941459656 -9.09992504119873 6.80081033706665 5.58885312784696e-06 0.01759403757750988 -0.16919133067131042 -0.2625526487827301 -3.247162103652954 0.8042740225791931 0.03236529231071472 -0.07422778010368347 -0.019178278744220734 -0.17126628756523132 -11.926997184753418 1.0751436948776245 0.40114113688468933 0.453824520111084 -0.1446450799703598 0.4647696018218994 -2.5048699378967285 -0.6720263361930847 -0.040858153253793716 0.04380498081445694 0.3484295904636383 -0.37394919991493225 -29.021209716796875 -41.298683166503906 -24.332242965698242 -2.4031386375427246 70.26824951171875 3.272289514541626 -4.174644947052002 -12.230238914489746 -12.388216972351074 0.2833060026168823 -0.38228076696395874 0.1507887989282608 35.5671272277832 -43.824684143066406 28.385251998901367 1.6591823101043701 72.75332641601562 -2.793391466140747 5.171567440032959 -12.256800651550293 13.768838882446289
